<svg style="width:0; height:0; visibility:hidden;" xmlns="http://www.w3.org/2000/svg">
    <symbol id="svg-logo" viewBox="0 0 224 23">
        <path d="M5.47 12.49L11.35 22H17.29L10.72 12.49H5.47ZM0.22 0.999999V22H5.29V0.999999H0.22ZM3.4 5.29H7.51C8.19 5.29 8.77 5.4 9.25 5.62C9.75 5.84 10.13 6.16 10.39 6.58C10.65 6.98 10.78 7.47 10.78 8.05C10.78 8.63 10.65 9.13 10.39 9.55C10.13 9.95 9.75 10.26 9.25 10.48C8.77 10.68 8.19 10.78 7.51 10.78H3.4V14.71H7.87C9.67 14.71 11.17 14.42 12.37 13.84C13.57 13.26 14.48 12.46 15.1 11.44C15.72 10.4 16.03 9.21 16.03 7.87C16.03 6.51 15.72 5.32 15.1 4.3C14.48 3.26 13.57 2.45 12.37 1.87C11.17 1.29 9.67 0.999999 7.87 0.999999H3.4V5.29ZM23.8138 11.5C23.8138 10.26 24.0538 9.17 24.5338 8.23C25.0338 7.27 25.7238 6.52 26.6038 5.98C27.5038 5.44 28.5538 5.17 29.7538 5.17C30.9738 5.17 32.0238 5.44 32.9038 5.98C33.7838 6.52 34.4638 7.27 34.9438 8.23C35.4238 9.17 35.6638 10.26 35.6638 11.5C35.6638 12.74 35.4138 13.84 34.9138 14.8C34.4338 15.74 33.7438 16.48 32.8438 17.02C31.9638 17.56 30.9338 17.83 29.7538 17.83C28.5538 17.83 27.5038 17.56 26.6038 17.02C25.7238 16.48 25.0338 15.74 24.5338 14.8C24.0538 13.84 23.8138 12.74 23.8138 11.5ZM18.4438 11.5C18.4438 13.12 18.7138 14.61 19.2538 15.97C19.8138 17.33 20.5938 18.51 21.5938 19.51C22.6138 20.51 23.8138 21.29 25.1938 21.85C26.5738 22.39 28.0938 22.66 29.7538 22.66C31.3938 22.66 32.9038 22.39 34.2838 21.85C35.6638 21.29 36.8538 20.51 37.8538 19.51C38.8738 18.51 39.6538 17.33 40.1938 15.97C40.7538 14.61 41.0338 13.12 41.0338 11.5C41.0338 9.88 40.7538 8.4 40.1938 7.06C39.6338 5.72 38.8438 4.56 37.8238 3.58C36.8038 2.6 35.6038 1.85 34.2238 1.33C32.8638 0.789999 31.3738 0.519999 29.7538 0.519999C28.1538 0.519999 26.6638 0.789999 25.2838 1.33C23.9038 1.85 22.7038 2.6 21.6838 3.58C20.6638 4.56 19.8638 5.72 19.2838 7.06C18.7238 8.4 18.4438 9.88 18.4438 11.5ZM48.0625 11.56H51.9925C53.4525 11.56 54.7325 11.36 55.8325 10.96C56.9525 10.54 57.8325 9.94 58.4725 9.16C59.1325 8.38 59.4625 7.44 59.4625 6.34C59.4625 5.14 59.1325 4.15 58.4725 3.37C57.8325 2.57 56.9525 1.98 55.8325 1.6C54.7325 1.2 53.4525 0.999999 51.9925 0.999999H44.2825V22H52.5025C54.1625 22 55.6025 21.8 56.8225 21.4C58.0425 20.98 58.9825 20.34 59.6425 19.48C60.3225 18.62 60.6625 17.49 60.6625 16.09C60.6625 15.03 60.4225 14.13 59.9425 13.39C59.4825 12.63 58.8625 12.01 58.0825 11.53C57.3025 11.03 56.4325 10.67 55.4725 10.45C54.5125 10.23 53.5225 10.12 52.5025 10.12H48.0625V12.88H51.9325C52.4325 12.88 52.8825 12.93 53.2825 13.03C53.7025 13.11 54.0725 13.25 54.3925 13.45C54.7125 13.65 54.9625 13.91 55.1425 14.23C55.3225 14.55 55.4125 14.93 55.4125 15.37C55.4125 16.05 55.2525 16.59 54.9325 16.99C54.6325 17.37 54.2225 17.65 53.7025 17.83C53.1825 17.99 52.5925 18.07 51.9325 18.07H49.3525V4.93H51.4525C52.3325 4.93 53.0125 5.11 53.4925 5.47C53.9725 5.83 54.2125 6.37 54.2125 7.09C54.2125 7.57 54.1025 7.98 53.8825 8.32C53.6625 8.64 53.3425 8.89 52.9225 9.07C52.5225 9.25 52.0325 9.34 51.4525 9.34H48.0625V11.56ZM68.3744 11.5C68.3744 10.26 68.6144 9.17 69.0944 8.23C69.5944 7.27 70.2844 6.52 71.1644 5.98C72.0644 5.44 73.1144 5.17 74.3144 5.17C75.5344 5.17 76.5844 5.44 77.4644 5.98C78.3444 6.52 79.0244 7.27 79.5044 8.23C79.9844 9.17 80.2244 10.26 80.2244 11.5C80.2244 12.74 79.9744 13.84 79.4744 14.8C78.9944 15.74 78.3044 16.48 77.4044 17.02C76.5244 17.56 75.4944 17.83 74.3144 17.83C73.1144 17.83 72.0644 17.56 71.1644 17.02C70.2844 16.48 69.5944 15.74 69.0944 14.8C68.6144 13.84 68.3744 12.74 68.3744 11.5ZM63.0044 11.5C63.0044 13.12 63.2744 14.61 63.8144 15.97C64.3744 17.33 65.1544 18.51 66.1544 19.51C67.1744 20.51 68.3744 21.29 69.7544 21.85C71.1344 22.39 72.6544 22.66 74.3144 22.66C75.9544 22.66 77.4644 22.39 78.8444 21.85C80.2244 21.29 81.4144 20.51 82.4144 19.51C83.4344 18.51 84.2144 17.33 84.7544 15.97C85.3144 14.61 85.5944 13.12 85.5944 11.5C85.5944 9.88 85.3144 8.4 84.7544 7.06C84.1944 5.72 83.4044 4.56 82.3844 3.58C81.3644 2.6 80.1644 1.85 78.7844 1.33C77.4244 0.789999 75.9344 0.519999 74.3144 0.519999C72.7144 0.519999 71.2244 0.789999 69.8444 1.33C68.4644 1.85 67.2644 2.6 66.2444 3.58C65.2244 4.56 64.4244 5.72 63.8444 7.06C63.2844 8.4 63.0044 9.88 63.0044 11.5ZM87.7248 19.96C87.7248 20.72 87.9948 21.37 88.5348 21.91C89.0748 22.45 89.7448 22.72 90.5448 22.72C91.3848 22.72 92.0648 22.45 92.5848 21.91C93.1048 21.37 93.3648 20.72 93.3648 19.96C93.3648 19.2 93.1048 18.55 92.5848 18.01C92.0648 17.47 91.3848 17.2 90.5448 17.2C89.7448 17.2 89.0748 17.47 88.5348 18.01C87.9948 18.55 87.7248 19.2 87.7248 19.96ZM99.9128 14.62L96.3728 17.17C96.8528 18.17 97.5228 19.09 98.3828 19.93C99.2428 20.77 100.253 21.44 101.413 21.94C102.593 22.42 103.863 22.66 105.223 22.66C106.203 22.66 107.153 22.51 108.073 22.21C109.013 21.93 109.843 21.51 110.563 20.95C111.303 20.39 111.883 19.7 112.303 18.88C112.743 18.04 112.963 17.09 112.963 16.03C112.963 15.15 112.823 14.37 112.543 13.69C112.263 13.01 111.873 12.41 111.373 11.89C110.893 11.37 110.333 10.93 109.693 10.57C109.053 10.19 108.363 9.86 107.623 9.58C106.643 9.24 105.803 8.92 105.103 8.62C104.423 8.32 103.893 7.99 103.513 7.63C103.153 7.27 102.973 6.85 102.973 6.37C102.973 5.91 103.163 5.53 103.543 5.23C103.923 4.91 104.473 4.75 105.193 4.75C105.733 4.75 106.233 4.86 106.693 5.08C107.173 5.28 107.603 5.57 107.983 5.95C108.383 6.31 108.733 6.74 109.033 7.24L112.903 5.08C112.543 4.36 112.023 3.65 111.343 2.95C110.663 2.25 109.803 1.67 108.763 1.21C107.743 0.749999 106.533 0.519999 105.133 0.519999C103.773 0.519999 102.533 0.759999 101.413 1.24C100.313 1.7 99.4328 2.38 98.7728 3.28C98.1328 4.18 97.8128 5.25 97.8128 6.49C97.8128 7.53 98.0028 8.42 98.3828 9.16C98.7628 9.88 99.2428 10.5 99.8228 11.02C100.403 11.52 101.013 11.93 101.653 12.25C102.313 12.57 102.893 12.82 103.393 13C104.413 13.38 105.233 13.72 105.853 14.02C106.473 14.32 106.923 14.64 107.203 14.98C107.483 15.3 107.623 15.73 107.623 16.27C107.623 16.91 107.383 17.42 106.903 17.8C106.423 18.16 105.813 18.34 105.073 18.34C104.373 18.34 103.703 18.19 103.063 17.89C102.443 17.59 101.863 17.16 101.323 16.6C100.803 16.04 100.333 15.38 99.9128 14.62ZM120.673 11.5C120.673 10.2 120.963 9.09 121.543 8.17C122.123 7.25 122.883 6.55 123.823 6.07C124.783 5.59 125.833 5.35 126.973 5.35C127.973 5.35 128.853 5.48 129.613 5.74C130.373 5.98 131.053 6.32 131.653 6.76C132.253 7.18 132.783 7.63 133.243 8.11V2.65C132.403 1.99 131.483 1.47 130.483 1.09C129.483 0.709999 128.213 0.519999 126.673 0.519999C124.993 0.519999 123.443 0.779999 122.023 1.3C120.603 1.82 119.383 2.57 118.363 3.55C117.343 4.53 116.553 5.69 115.993 7.03C115.433 8.37 115.153 9.86 115.153 11.5C115.153 13.14 115.433 14.63 115.993 15.97C116.553 17.31 117.343 18.47 118.363 19.45C119.383 20.43 120.603 21.18 122.023 21.7C123.443 22.22 124.993 22.48 126.673 22.48C128.213 22.48 129.483 22.29 130.483 21.91C131.483 21.53 132.403 21.01 133.243 20.35V14.89C132.783 15.37 132.253 15.82 131.653 16.24C131.053 16.66 130.373 17 129.613 17.26C128.853 17.52 127.973 17.65 126.973 17.65C125.833 17.65 124.783 17.41 123.823 16.93C122.883 16.45 122.123 15.75 121.543 14.83C120.963 13.89 120.673 12.78 120.673 11.5ZM138.798 13.21H154.698V8.65H138.798V13.21ZM151.488 0.999999V22H156.558V0.999999H151.488ZM137.388 0.999999V22H142.458V0.999999H137.388ZM165.142 11.5C165.142 10.26 165.382 9.17 165.862 8.23C166.362 7.27 167.052 6.52 167.932 5.98C168.832 5.44 169.882 5.17 171.082 5.17C172.302 5.17 173.352 5.44 174.232 5.98C175.112 6.52 175.792 7.27 176.272 8.23C176.752 9.17 176.992 10.26 176.992 11.5C176.992 12.74 176.742 13.84 176.242 14.8C175.762 15.74 175.072 16.48 174.172 17.02C173.292 17.56 172.262 17.83 171.082 17.83C169.882 17.83 168.832 17.56 167.932 17.02C167.052 16.48 166.362 15.74 165.862 14.8C165.382 13.84 165.142 12.74 165.142 11.5ZM159.772 11.5C159.772 13.12 160.042 14.61 160.582 15.97C161.142 17.33 161.922 18.51 162.922 19.51C163.942 20.51 165.142 21.29 166.522 21.85C167.902 22.39 169.422 22.66 171.082 22.66C172.722 22.66 174.232 22.39 175.612 21.85C176.992 21.29 178.182 20.51 179.182 19.51C180.202 18.51 180.982 17.33 181.522 15.97C182.082 14.61 182.362 13.12 182.362 11.5C182.362 9.88 182.082 8.4 181.522 7.06C180.962 5.72 180.172 4.56 179.152 3.58C178.132 2.6 176.932 1.85 175.552 1.33C174.192 0.789999 172.702 0.519999 171.082 0.519999C169.482 0.519999 167.992 0.789999 166.612 1.33C165.232 1.85 164.032 2.6 163.012 3.58C161.992 4.56 161.192 5.72 160.612 7.06C160.052 8.4 159.772 9.88 159.772 11.5ZM189.781 11.5C189.781 10.26 190.021 9.17 190.501 8.23C191.001 7.27 191.691 6.52 192.571 5.98C193.471 5.44 194.521 5.17 195.721 5.17C196.941 5.17 197.991 5.44 198.871 5.98C199.751 6.52 200.431 7.27 200.911 8.23C201.391 9.17 201.631 10.26 201.631 11.5C201.631 12.74 201.381 13.84 200.881 14.8C200.401 15.74 199.711 16.48 198.811 17.02C197.931 17.56 196.901 17.83 195.721 17.83C194.521 17.83 193.471 17.56 192.571 17.02C191.691 16.48 191.001 15.74 190.501 14.8C190.021 13.84 189.781 12.74 189.781 11.5ZM184.411 11.5C184.411 13.12 184.681 14.61 185.221 15.97C185.781 17.33 186.561 18.51 187.561 19.51C188.581 20.51 189.781 21.29 191.161 21.85C192.541 22.39 194.061 22.66 195.721 22.66C197.361 22.66 198.871 22.39 200.251 21.85C201.631 21.29 202.821 20.51 203.821 19.51C204.841 18.51 205.621 17.33 206.161 15.97C206.721 14.61 207.001 13.12 207.001 11.5C207.001 9.88 206.721 8.4 206.161 7.06C205.601 5.72 204.811 4.56 203.791 3.58C202.771 2.6 201.571 1.85 200.191 1.33C198.831 0.789999 197.341 0.519999 195.721 0.519999C194.121 0.519999 192.631 0.789999 191.251 1.33C189.871 1.85 188.671 2.6 187.651 3.58C186.631 4.56 185.831 5.72 185.251 7.06C184.691 8.4 184.411 9.88 184.411 11.5ZM210.249 0.999999V22H223.749V17.65H215.319V0.999999H210.249Z" fill="white"/>
    </symbol>
    <symbol id="svg-facebook" viewBox="0 0 30 30">
        <path fill-rule="evenodd" clip-rule="evenodd" d="M15 0C6.71573 0 0 6.71573 0 15C0 23.2843 6.71573 30 15 30C23.2843 30 30 23.2843 30 15C30 6.71573 23.2843 0 15 0ZM16.5635 15.6589V23.8197H13.1869V15.6592H11.5V12.8469H13.1869V11.1585C13.1869 8.86425 14.1395 7.5 16.8457 7.5H19.0988V10.3126H17.6905C16.637 10.3126 16.5673 10.7056 16.5673 11.4391L16.5635 12.8466H19.1147L18.8162 15.6589H16.5635Z"/>
    </symbol>
    <symbol id="svg-instagram" viewBox="0 0 30 30">
        <path fill-rule="evenodd" clip-rule="evenodd" d="M15 0C6.71573 0 0 6.71573 0 15C0 23.2843 6.71573 30 15 30C23.2843 30 30 23.2843 30 15C30 6.71573 23.2843 0 15 0ZM11.702 7.04833C12.5554 7.0095 12.8281 7 15.0007 7H14.9983C17.1716 7 17.4433 7.0095 18.2966 7.04833C19.1483 7.08733 19.73 7.22217 20.24 7.42C20.7666 7.62417 21.2116 7.89751 21.6567 8.34251C22.1017 8.78719 22.375 9.23352 22.58 9.7597C22.7767 10.2684 22.9117 10.8497 22.9517 11.7014C22.99 12.5547 23 12.8274 23 15.0001C23 17.1728 22.99 17.4448 22.9517 18.2981C22.9117 19.1495 22.7767 19.731 22.58 20.2398C22.375 20.7658 22.1017 21.2121 21.6567 21.6568C21.2121 22.1018 20.7665 22.3758 20.2405 22.5802C19.7315 22.778 19.1495 22.9128 18.2978 22.9518C17.4444 22.9907 17.1726 23.0002 14.9998 23.0002C12.8272 23.0002 12.5547 22.9907 11.7014 22.9518C10.8499 22.9128 10.2684 22.778 9.75936 22.5802C9.23352 22.3758 8.78719 22.1018 8.34268 21.6568C7.89784 21.2121 7.62451 20.7658 7.42 20.2396C7.22234 19.731 7.0875 19.1496 7.04833 18.298C7.00967 17.4446 7 17.1728 7 15.0001C7 12.8274 7.01 12.5546 7.04817 11.7012C7.0865 10.8499 7.2215 10.2684 7.41984 9.75953C7.62484 9.23352 7.89818 8.78719 8.34318 8.34251C8.78785 7.89768 9.23419 7.62434 9.76036 7.42C10.269 7.22217 10.8504 7.08733 11.702 7.04833Z"/>
        <path fill-rule="evenodd" clip-rule="evenodd" d="M14.2831 8.4417C14.4225 8.44148 14.5724 8.44155 14.7341 8.44162L15.0008 8.4417C17.1368 8.4417 17.39 8.44936 18.2335 8.4877C19.0135 8.52336 19.4368 8.6537 19.7188 8.7632C20.0922 8.9082 20.3583 9.08154 20.6382 9.36154C20.9182 9.64154 21.0915 9.90821 21.2368 10.2815C21.3464 10.5632 21.4769 10.9866 21.5124 11.7666C21.5507 12.6099 21.559 12.8632 21.559 14.9983C21.559 17.1333 21.5507 17.3866 21.5124 18.23C21.4767 19.01 21.3464 19.4333 21.2368 19.715C21.0918 20.0883 20.9182 20.3542 20.6382 20.634C20.3582 20.914 20.0923 21.0873 19.7188 21.2323C19.4372 21.3423 19.0135 21.4723 18.2335 21.508C17.3901 21.5463 17.1368 21.5547 15.0008 21.5547C12.8646 21.5547 12.6114 21.5463 11.7681 21.508C10.9881 21.472 10.5647 21.3417 10.2826 21.2322C9.90923 21.0872 9.64256 20.9138 9.36256 20.6338C9.08256 20.3538 8.90922 20.0878 8.76389 19.7143C8.65439 19.4326 8.52388 19.0093 8.48838 18.2293C8.45005 17.386 8.44238 17.1326 8.44238 14.9963C8.44238 12.8599 8.45005 12.6079 8.48838 11.7646C8.52405 10.9846 8.65439 10.5612 8.76389 10.2792C8.90889 9.90588 9.08256 9.63921 9.36256 9.35921C9.64256 9.0792 9.90923 8.90587 10.2826 8.76053C10.5646 8.65053 10.9881 8.52053 11.7681 8.4847C12.5061 8.45136 12.7921 8.44136 14.2831 8.4397V8.4417ZM19.271 9.77005C18.741 9.77005 18.311 10.1996 18.311 10.7297C18.311 11.2597 18.741 11.6897 19.271 11.6897C19.8011 11.6897 20.2311 11.2597 20.2311 10.7297C20.2311 10.1997 19.8011 9.76971 19.271 9.76971V9.77005ZM10.8926 15.0001C10.8926 12.7313 12.732 10.8918 15.0008 10.8917C17.2696 10.8917 19.1087 12.7312 19.1087 15.0001C19.1087 17.269 17.2698 19.1076 15.001 19.1076C12.7321 19.1076 10.8926 17.269 10.8926 15.0001Z"/>
        <path fill-rule="evenodd" clip-rule="evenodd" d="M15.0007 12.3335C16.4734 12.3335 17.6674 13.5273 17.6674 15.0002C17.6674 16.4729 16.4734 17.6669 15.0007 17.6669C13.5278 17.6669 12.334 16.4729 12.334 15.0002C12.334 13.5273 13.5278 12.3335 15.0007 12.3335V12.3335Z"/>
    </symbol>
    <symbol id="svg-mobile" viewBox="0 0 24 24">
        <path d="M18.1668 14.3797C17.4951 14.2352 16.9637 14.5471 16.4932 14.8194C16.0114 15.1001 15.0951 15.8434 14.57 15.6531C11.8811 14.546 9.35213 12.1925 8.25739 9.49286C8.06444 8.95647 8.80424 8.0344 9.08283 7.54686C9.35316 7.07492 9.65858 6.53852 9.51928 5.86178C9.3934 5.25366 7.76522 3.18188 7.18947 2.61533C6.80977 2.2411 6.42078 2.03527 6.02147 2.00201C4.5202 1.93756 2.84352 3.94073 2.54945 4.41996C1.81274 5.44181 1.81687 6.80152 2.56183 8.45021C4.35717 12.8786 11.1475 19.5618 15.5925 21.4246C16.4128 21.8082 17.1629 22.0005 17.8366 22.0005C18.496 22.0005 19.0831 21.8165 19.5876 21.4516C19.9684 21.2323 22.0536 19.4724 21.9989 17.9307C21.9659 17.5378 21.7606 17.1448 21.3912 16.7644C20.8289 16.1833 18.7704 14.5065 18.1668 14.3797Z" fill="white"/>
    </symbol>
    <symbol id="arrow-left" viewBox="0 0 40 40">
        <path fill-rule="evenodd" clip-rule="evenodd" d="M3.33317 20C3.33317 29.2 10.8165 36.6666 19.9998 36.6666L20.4661 36.6602C29.4508 36.413 36.6665 29.044 36.6665 20C36.6665 10.8166 29.1998 3.33331 19.9998 3.33331C10.8165 3.33331 3.33317 10.8166 3.33317 20ZM23.2998 13.3333C23.7832 13.8333 23.7832 14.6166 23.2832 15.1L18.3665 20L23.2832 24.9C23.7832 25.3833 23.7832 26.1833 23.2998 26.6666C22.7998 27.1666 22.0165 27.1666 21.5332 26.6666L15.7165 20.8833C15.4832 20.65 15.3498 20.3333 15.3498 20C15.3498 19.6666 15.4832 19.35 15.7165 19.1166L21.5332 13.3333C21.7665 13.0833 22.0832 12.9666 22.3998 12.9666C22.7332 12.9666 23.0498 13.0833 23.2998 13.3333Z"/>
    </symbol>
    <symbol id="arrow-right" viewBox="0 0 40 40">
        <path fill-rule="evenodd" clip-rule="evenodd" d="M36.6668 20C36.6668 29.2 29.1835 36.6666 20.0002 36.6666L19.5339 36.6602C10.5492 36.413 3.3335 29.044 3.3335 20C3.3335 10.8166 10.8002 3.33331 20.0002 3.33331C29.1835 3.33331 36.6668 10.8166 36.6668 20ZM16.7002 13.3333C16.2168 13.8333 16.2168 14.6166 16.7168 15.1L21.6335 20L16.7168 24.9C16.2168 25.3833 16.2168 26.1833 16.7002 26.6666C17.2002 27.1666 17.9835 27.1666 18.4668 26.6666L24.2835 20.8833C24.5168 20.65 24.6502 20.3333 24.6502 20C24.6502 19.6666 24.5168 19.35 24.2835 19.1166L18.4668 13.3333C18.2335 13.0833 17.9168 12.9666 17.6002 12.9666C17.2668 12.9666 16.9502 13.0833 16.7002 13.3333Z"/>
    </symbol>
    <symbol id="arrow-down" viewBox="0 0 10 10">
        <path d="M4.52875 6.92957C4.50458 6.90603 4.40125 6.81714 4.31625 6.73433C3.78167 6.24886 2.90667 4.98242 2.63958 4.31957C2.59667 4.21891 2.50583 3.9644 2.5 3.82842C2.5 3.69812 2.53 3.57392 2.59083 3.45539C2.67583 3.30764 2.80958 3.18911 2.9675 3.12417C3.07708 3.08236 3.405 3.01741 3.41083 3.01741C3.76958 2.95247 4.3525 2.91675 4.99667 2.91675C5.61042 2.91675 6.16958 2.95247 6.53375 3.00564C6.53958 3.01173 6.94708 3.07668 7.08667 3.14771C7.34167 3.27801 7.5 3.53251 7.5 3.80488V3.82842C7.49375 4.0058 7.33542 4.37884 7.32958 4.37884C7.06208 5.00597 6.23 6.24318 5.67708 6.74042C5.67708 6.74042 5.535 6.88046 5.44625 6.94135C5.31875 7.03633 5.16083 7.08341 5.00292 7.08341C4.82667 7.08341 4.6625 7.03024 4.52875 6.92957Z" fill="white"/>
    </symbol>
</svg>